<?xml version="1.0" encoding="UTF-8" standalone="no"?>
<!-- Created with Inkscape (http://www.inkscape.org/) -->

<svg
   width="133.53984mm"
   height="46.657703mm"
   viewBox="0 0 133.53985 46.657704"
   version="1.1"
   id="svg5"
   xml:space="preserve"
   inkscape:version="1.2.2 (b0a8486, 2022-12-01)"
   sodipodi:docname="logo.svg"
   xmlns:inkscape="http://www.inkscape.org/namespaces/inkscape"
   xmlns:sodipodi="http://sodipodi.sourceforge.net/DTD/sodipodi-0.dtd"
   xmlns="http://www.w3.org/2000/svg"
   xmlns:svg="http://www.w3.org/2000/svg"><sodipodi:namedview
     id="namedview7"
     pagecolor="#ffffff"
     bordercolor="#666666"
     borderopacity="1.0"
     inkscape:showpageshadow="2"
     inkscape:pageopacity="0.0"
     inkscape:pagecheckerboard="0"
     inkscape:deskcolor="#d1d1d1"
     inkscape:document-units="mm"
     showgrid="false"
     inkscape:zoom="1.1164302"
     inkscape:cx="298.27212"
     inkscape:cy="120.47327"
     inkscape:window-width="1440"
     inkscape:window-height="789"
     inkscape:window-x="0"
     inkscape:window-y="25"
     inkscape:window-maximized="1"
     inkscape:current-layer="layer1" /><defs
     id="defs2" /><g
     inkscape:label="Layer 1"
     inkscape:groupmode="layer"
     id="layer1"
     transform="translate(-18.43445,-121.98751)"><g
       id="g25510"
       transform="translate(0.22510561,-79.469242)"><circle
         style="fill:#cb252c;fill-opacity:1;fill-rule:evenodd;stroke:none;stroke-width:0.441148;paint-order:stroke fill markers;stop-color:#000000"
         id="path24602"
         cx="36.637314"
         cy="230.94394"
         r="15.831722" /><circle
         style="fill:#ffffff;fill-opacity:1;fill-rule:evenodd;stroke:none;stroke-width:0.140445;paint-order:stroke fill markers;stop-color:#000000"
         id="path24602-2"
         cx="44.547276"
         cy="231.81674"
         r="5.0402498" /></g><path
       style="fill:#333333;stroke-width:0.264583"
       d="m 72.398287,162.20708 c -0.873196,-0.22442 -1.685644,-1.15123 -2.494584,-2.84574 -1.739731,-3.64427 -5.229654,-10.84599 -6.9953,-14.43535 l -1.887199,-3.83646 -0.06918,10.51719 -0.06918,10.51719 h -1.716758 -1.716757 l 0.0011,-11.84011 c 0.0011,-11.36699 0.02209,-11.87473 0.529288,-12.70659 0.885786,-1.45283 2.58676,-1.78849 4.154168,-0.81978 0.785685,0.48558 1.370573,1.50985 4.268142,7.47448 1.846731,3.80148 3.951393,8.18595 4.677032,9.74327 0.725635,1.55731 1.408636,2.83723 1.517777,2.84427 0.10914,0.007 0.198437,-4.5768 0.198437,-10.18629 v -10.19909 l 1.653646,0.0788 1.653646,0.0788 0.07698,11.44089 c 0.07938,11.79873 -0.01564,13.15378 -0.963665,13.74258 -0.621914,0.38625 -2.108558,0.61419 -2.817477,0.432 z m 12.700001,-0.0668 c -2.571301,-0.62876 -5.291389,-3.0252 -6.20481,-5.46654 -0.751973,-2.00983 -0.733735,-4.84566 0.04434,-6.89551 0.708797,-1.86732 2.661049,-3.93626 4.543168,-4.8147 3.30581,-1.54293 8.123661,-0.68443 10.37702,1.84908 0.972717,1.09365 1.956234,2.71769 1.754026,2.89634 -0.107249,0.0948 -0.968904,0.59503 -1.91479,1.11172 -0.945885,0.51669 -3.442824,1.90208 -5.548754,3.07865 -2.10593,1.17657 -3.919212,2.13922 -4.02952,2.13922 -0.336375,0 -1.327745,-2.1653 -1.092642,-2.3865 0.120931,-0.11378 2.005812,-1.1943 4.188624,-2.40116 2.182813,-1.20686 4.01269,-2.22503 4.066395,-2.26259 0.177887,-0.12443 -0.639932,-0.81204 -1.486506,-1.24982 -1.18083,-0.61063 -3.787587,-0.56821 -5.062876,0.0824 -3.081825,1.57223 -4.139073,5.87381 -2.210404,8.99335 1.361253,2.20178 4.265102,3.15627 6.919783,2.27453 1.635903,-0.54336 2.761507,-1.80581 3.393385,-3.80594 l 0.447717,-1.41718 1.170369,0.16041 c 0.643702,0.0882 1.347563,0.16042 1.564132,0.16042 0.87445,0 -0.398981,3.76828 -1.759339,5.20616 -2.252906,2.38128 -6.027272,3.51354 -9.159322,2.74766 z m 16.193592,-0.36739 c -1.311608,-0.40536 -2.666883,-1.75819 -3.05323,-3.04771 -0.207484,-0.69252 -0.30807,-3.89062 -0.30807,-9.79494 v -8.7667 h 1.564216 1.564204 l 0.009,1.91823 c 0.005,1.05502 0.0151,2.03729 0.023,2.18281 0.009,0.15986 1.1926,0.26458 2.99123,0.26458 h 2.97688 l 0.0793,1.52136 0.0794,1.52135 h -3.05592 -3.05591 v 5.15938 c 0,6.34541 -0.0747,6.20143 3.24115,6.24905 1.20054,0.0172 2.33164,0.012 2.51354,-0.0116 0.23284,-0.0302 0.33073,0.43036 0.33073,1.55615 v 1.5991 l -2.4474,-0.0204 c -1.34607,-0.0112 -2.89934,-0.16001 -3.45172,-0.33073 z m 8.28036,-0.28803 v -0.63909 l 5.75469,-0.098 c 4.24184,-0.0722 5.96335,-0.19647 6.54844,-0.47249 2.34222,-1.10497 3.12411,-2.23393 3.12054,-4.50574 -0.003,-1.63716 -0.4621,-2.71738 -1.57557,-3.70372 -1.20106,-1.06391 -2.14599,-1.48302 -5.65277,-2.50717 -4.07305,-1.18954 -6.20424,-2.3076 -7.26499,-3.81136 -0.6678,-0.9467 -0.80468,-1.42085 -0.88831,-3.07691 -0.15612,-3.09163 0.83073,-4.67136 3.60135,-5.76501 0.92963,-0.36695 2.08999,-0.44597 6.54843,-0.44597 h 5.41861 v 0.66145 0.66146 l -5.09323,0.0116 c -5.92913,0.0135 -7.32426,0.31255 -8.30604,1.78052 -1.22834,1.83663 -1.02115,4.37697 0.47639,5.84109 1.11315,1.08831 2.47624,1.69563 6.35622,2.83198 6.03585,1.76777 7.88957,3.54794 7.88957,7.57652 0,2.36751 -0.98291,4.0331 -3.0427,5.15596 -1.6873,0.9198 -3.34212,1.13768 -8.66511,1.14088 l -5.22552,0.003 z m 25.79688,0.27258 c -4.1646,-1.04624 -6.48253,-4.16407 -6.48209,-8.71901 1.8e-4,-1.82543 0.11673,-2.4047 0.75385,-3.74677 0.91098,-1.91894 2.07075,-3.09703 3.95773,-4.02025 1.14694,-0.56114 1.91326,-0.71646 4.04035,-0.81889 l 2.62495,-0.1264 v 0.69683 c 0,0.6846 -0.0317,0.69684 -1.80406,0.69684 -3.51692,0 -5.94734,1.23596 -7.32407,3.72457 -0.71749,1.29697 -0.79356,1.66356 -0.79185,3.81605 0.002,2.68274 0.44175,3.83921 2.02544,5.3282 1.46798,1.3802 2.5077,1.76212 5.2487,1.92801 2.46416,0.14914 2.51355,0.16512 2.51355,0.81359 0,0.63268 -0.0748,0.66359 -1.7198,0.71051 -0.94588,0.027 -2.3151,-0.10049 -3.0427,-0.28328 z m 9.65729,-8.36474 v -8.73125 h 0.66146 0.66145 v 8.73125 8.73126 h -0.66145 -0.66146 z M 44.173861,137.45151 c -0.08193,-9.39051 -0.112505,-9.91305 -0.647691,-11.07015 -0.344668,-0.74518 -0.919005,-1.43524 -1.486438,-1.78593 -0.898635,-0.55539 -1.171018,-0.57152 -9.64929,-0.57152 -8.581687,0 -8.743646,0.01 -9.890645,0.60689 -0.828559,0.43122 -1.338412,0.94525 -1.761407,1.77585 -0.73865,1.45043 -0.746162,2.22131 -0.04003,4.10861 0.496277,1.32642 1.206172,2.13007 6.68073,7.56306 l 6.125448,6.07894 0.07997,-1.33543 c 0.04398,-0.73448 0.176757,-1.33542 0.295048,-1.33542 0.118291,0 0.533573,0.25053 0.922848,0.55673 0.671861,0.52849 0.703877,0.65938 0.630994,2.57969 l -0.07678,2.02295 -2.052802,0.0773 c -1.935288,0.0729 -2.090537,0.0366 -2.711979,-0.63395 -0.617647,-0.66645 -0.902792,-1.33484 -0.46074,-1.07998 0.10914,0.0629 0.69523,0.0402 1.302421,-0.0505 l 1.103983,-0.16494 -5.920759,-6.00654 c -3.301249,-3.34908 -6.164333,-6.48399 -6.471298,-7.08569 -0.806596,-1.58106 -1.080783,-3.35529 -0.734409,-4.75228 0.398338,-1.60658 2.068767,-3.26186 3.708333,-3.6747 1.320119,-0.33241 16.633838,-0.44824 18.187218,-0.13756 1.312712,0.26254 2.779443,1.82975 3.306314,3.53281 0.378497,1.22346 0.467855,2.98265 0.561102,11.04636 0.108113,9.34916 0.09798,9.59114 -0.401621,9.59114 -0.496274,0 -0.515258,-0.31261 -0.598522,-9.85572 z"
       id="path24544" /><circle
       style="fill:#cb252c;fill-opacity:1;fill-rule:evenodd;stroke:none;stroke-width:0.140445;paint-order:stroke fill markers;stop-color:#000000"
       id="path24602-2-7"
       cx="145.82018"
       cy="136.60835"
       r="5.0402498" /></g></svg>
